<svg width="25" height="25" viewBox="0 0 25 25" fill="none" xmlns="http://www.w3.org/2000/svg">
<rect width="25" height="25" rx="2" fill="#94212D"></rect>
<g clip-path="url('#clip0_79_288')">
<path d="M9.84053 20.2127C10.575 20.2127 11.1703 19.6174 11.1703 18.8829C11.1703 18.1485 10.575 17.5532 9.84053 17.5532C9.10611 17.5532 8.51074 18.1485 8.51074 18.8829C8.51074 19.6174 9.10611 20.2127 9.84053 20.2127Z" fill="white"></path>
<path d="M16.7556 20.2127C17.49 20.2127 18.0854 19.6174 18.0854 18.8829C18.0854 18.1485 17.49 17.5532 16.7556 17.5532C16.0211 17.5532 15.4258 18.1485 15.4258 18.8829C15.4258 19.6174 16.0211 20.2127 16.7556 20.2127Z" fill="white"></path>
<path d="M20.266 6.59043C20.2165 6.52606 20.1528 6.4739 20.08 6.43794C20.0072 6.40198 19.9271 6.38318 19.8458 6.38299H7.55859L7.31923 5.62235C7.29293 5.54068 7.24727 5.46658 7.18614 5.40637C7.12501 5.34617 7.05022 5.30165 6.96816 5.2766L4.78731 4.60639C4.72025 4.58578 4.64979 4.57859 4.57995 4.58521C4.51011 4.59184 4.44226 4.61215 4.38028 4.645C4.25509 4.71133 4.16137 4.82468 4.11976 4.96011C4.07814 5.09554 4.09203 5.24196 4.15836 5.36715C4.2247 5.49234 4.33805 5.58605 4.47348 5.62767L6.38306 6.21277L8.81923 13.9096L7.9522 14.6223L7.88306 14.6915C7.66864 14.9398 7.54716 15.2548 7.5394 15.5828C7.53163 15.9108 7.63807 16.2312 7.8405 16.4894C7.98548 16.6657 8.16971 16.8056 8.37845 16.898C8.58719 16.9903 8.81465 17.0326 9.04263 17.0213H17.9203C18.0614 17.0213 18.1967 16.9652 18.2964 16.8655C18.3962 16.7657 18.4522 16.6304 18.4522 16.4894C18.4522 16.3483 18.3962 16.213 18.2964 16.1132C18.1967 16.0135 18.0614 15.9575 17.9203 15.9575H8.95752C8.89627 15.9554 8.83659 15.9375 8.78426 15.9056C8.73192 15.8737 8.68869 15.8289 8.65874 15.7754C8.6288 15.7219 8.61315 15.6616 8.61331 15.6004C8.61347 15.5391 8.62943 15.4789 8.65965 15.4255L9.94157 14.3617H18.149C18.2705 14.3652 18.3896 14.3271 18.4864 14.2535C18.5831 14.18 18.6518 14.0755 18.6809 13.9575L20.3831 7.04256C20.3992 6.96326 20.3971 6.88132 20.3768 6.80297C20.3565 6.72462 20.3186 6.65193 20.266 6.59043Z" fill="white"></path>
</g>
<defs>
<clipPath id="clip0_79_288">
<rect width="19.1489" height="19.1489" fill="white" transform="translate(2.65967 3.19147)"></rect>
</clipPath>
</defs>
</svg>
