<svg width="29" height="29" viewBox="0 0 29 29" fill="none" xmlns="http://www.w3.org/2000/svg">
<path d="M14.5 9.6835C11.8479 9.6835 9.68355 11.8479 9.68355 14.5C9.68355 17.1521 11.8479 19.3165 14.5 19.3165C17.1522 19.3165 19.3166 17.1521 19.3166 14.5C19.3166 11.8479 17.1522 9.6835 14.5 9.6835ZM28.9459 14.5C28.9459 12.5055 28.964 10.529 28.852 8.53809C28.74 6.22559 28.2125 4.17324 26.5214 2.48223C24.8268 0.787598 22.7781 0.263672 20.4656 0.151661C18.471 0.0396489 16.4946 0.0577154 14.5037 0.0577154C12.5091 0.0577154 10.5327 0.0396489 8.54175 0.151661C6.22925 0.263672 4.1769 0.791211 2.48589 2.48223C0.79126 4.17686 0.267334 6.22559 0.155323 8.53809C0.043311 10.5326 0.0613775 12.5091 0.0613775 14.5C0.0613775 16.4909 0.043311 18.471 0.155323 20.4619C0.267334 22.7744 0.794874 24.8268 2.48589 26.5178C4.18052 28.2124 6.22925 28.7363 8.54175 28.8483C10.5363 28.9604 12.5127 28.9423 14.5037 28.9423C16.4982 28.9423 18.4747 28.9604 20.4656 28.8483C22.7781 28.7363 24.8304 28.2088 26.5214 26.5178C28.2161 24.8231 28.74 22.7744 28.852 20.4619C28.9676 18.471 28.9459 16.4945 28.9459 14.5ZM14.5 21.9108C10.399 21.9108 7.08921 18.6011 7.08921 14.5C7.08921 10.3989 10.399 7.08916 14.5 7.08916C18.6011 7.08916 21.9109 10.3989 21.9109 14.5C21.9109 18.6011 18.6011 21.9108 14.5 21.9108ZM22.2144 8.51641C21.2569 8.51641 20.4836 7.74316 20.4836 6.78564C20.4836 5.82812 21.2569 5.05488 22.2144 5.05488C23.1719 5.05488 23.9452 5.82812 23.9452 6.78564C23.9455 7.01301 23.9009 7.2382 23.814 7.44832C23.7271 7.65843 23.5996 7.84934 23.4389 8.01011C23.2781 8.17089 23.0872 8.29836 22.8771 8.38524C22.667 8.47212 22.4418 8.51669 22.2144 8.51641Z" fill="white"/>
</svg>
