<svg width="422" height="295" viewBox="0 0 422 295" fill="none" xmlns="http://www.w3.org/2000/svg">
<path d="M0 1.5L90.5 64.5L32.1361 106.096C42.5108 118.906 51.1354 129 52.5 129C53.7248 129 47.4048 141.819 38.3439 159.046L127 139.5L95.5236 244.083L161.5 184.5L230.314 242.02L272 105L420.5 294H292.5H214.5H80.5H40.25H0V229.5V167.5V129V65.25V1.5Z" fill="#D9D9D9"/>
<path d="M0 65.25V129L90.5 64.5L0 1.5V65.25ZM0 65.25C16.3333 86.5 49.7 129 52.5 129C55.3 129 18.6667 196 0 229.5V167.5M0 65.25V167.5M0 167.5L127 139.5L80.5 294H40.25M0 167.5V294H40.25M40.25 294L161.5 184.5L292.5 294H214.5M40.25 294H214.5M214.5 294L272 105L420.5 294H214.5Z" stroke="black"/>
</svg>
