<svg width="423" height="278" viewBox="0 0 423 278" fill="none" xmlns="http://www.w3.org/2000/svg">
<path d="M423 277L332.392 217.554L390.826 178.304C380.439 166.217 371.804 156.692 370.438 156.692C369.211 156.692 375.539 144.596 384.611 128.341L295.849 146.785L327.363 48.1014L261.308 104.323L192.412 50.0477L150.677 179.338L1.99997 1H130.152H208.245H342.404H382.702H423V61.8615V120.364V156.692V216.846V277Z" fill="#D9D9D9"/>
<path d="M423 216.846V156.692L332.392 217.554L423 277V216.846ZM423 216.846C406.647 196.795 373.241 156.692 370.438 156.692C367.634 156.692 404.311 93.4718 423 61.8615V120.364M423 216.846V120.364M423 120.364L295.849 146.785L342.404 0.999999H382.702M423 120.364V0.999999H382.702M382.702 0.999999L261.308 104.323L130.152 0.999999H208.245M382.702 0.999999H208.245M208.245 0.999999L150.677 179.338L1.99998 0.999999H208.245Z" stroke="black"/>
</svg>
